<?xml version="1.0" standalone="no"?>
<!DOCTYPE svg PUBLIC "-//W3C//DTD SVG 20010904//EN"
 "http://www.w3.org/TR/2001/REC-SVG-20010904/DTD/svg10.dtd">
<svg version="1.0" xmlns="http://www.w3.org/2000/svg"
 viewBox="0 0 500.000000 500.000000"
 preserveAspectRatio="xMidYMid meet">

<g transform="translate(0.000000,500.000000) scale(0.100000,-0.100000)"
fill="#fff" stroke="none">
<path d="M950 3310 l0 -190 360 0 360 0 0 -502 c0 -298 -4 -529 -10 -567 -18
-106 -61 -175 -135 -214 -34 -18 -57 -22 -145 -22 -98 0 -110 2 -174 33 -50
23 -89 53 -141 105 l-71 73 -131 -155 -131 -156 32 -35 c106 -120 265 -208
441 -245 82 -17 295 -20 381 -4 158 28 263 78 360 174 80 80 130 169 166 300
22 79 22 91 26 838 l3 757 -596 0 -595 0 0 -190z"/>
<path d="M2460 2475 l0 -1025 240 0 240 0 0 285 0 285 264 0 c286 0 372 8 504
46 252 73 410 213 491 436 34 91 44 171 38 296 -9 200 -65 331 -196 463 -85
85 -168 135 -293 179 -157 55 -222 60 -780 60 l-508 0 0 -1025z m965 634 c136
-17 237 -74 288 -162 37 -65 50 -128 45 -214 -10 -163 -92 -262 -253 -308 -46
-13 -118 -18 -312 -22 l-253 -5 0 361 0 361 198 0 c108 0 237 -5 287 -11z"/>
</g>
</svg>
